<svg aria-hidden="true" style="position:absolute;width:0;height:0;overflow:hidden" xmlns="http://www.w3.org/2000/svg"><defs><symbol id="carLogo" viewBox="0 0 48 32"><path fill="#5b5b5b" style="fill:var(--color1, #5b5b5b)" d="M14.249 18.075c0-.158-.072-.237-.215-.237h-.156l-.164.793h.156c.097 0 .173-.028.228-.085s.1-.161.132-.314c.012-.069.019-.121.019-.157zm.71.607a.76.76 0 0 1-.412.181c.119.012.208.054.267.125s.089.166.089.282c0 .045-.006.1-.019.166l-.041.219a.428.428 0 0 0-.007.063c0 .039.007.068.022.087s.036.029.063.029c.052 0 .09.009.113.027s.032.051.024.099c-.01.069-.04.136-.089.201s-.12.12-.21.164a.76.76 0 0 1-.329.065c-.163 0-.293-.044-.39-.132s-.145-.214-.145-.378c0-.063.007-.13.022-.201l.059-.287a.483.483 0 0 0 .015-.121c0-.069-.019-.118-.058-.148s-.1-.045-.184-.045h-.141l-.171.743a.255.255 0 0 0-.007.067c0 .042.009.078.026.108s.041.061.071.094c.022.021.04.041.052.06s.019.04.019.06c0 .051-.02.087-.059.108s-.098.031-.175.031h-.932c-.064 0-.113-.014-.145-.043s-.043-.068-.033-.119c.005-.027.014-.049.028-.065s.034-.035.061-.056c.042-.03.076-.061.1-.094s.045-.084.059-.152l.453-1.93a.449.449 0 0 0 .015-.112.226.226 0 0 0-.013-.083.857.857 0 0 0-.038-.084l.002.005a.207.207 0 0 1-.033-.094c0-.009.002-.025.007-.049.01-.039.032-.066.065-.083s.085-.025.154-.025h1.244c.171 0 .32.031.448.094s.225.148.293.257a.683.683 0 0 1 .102.369.804.804 0 0 1-.022.188.75.75 0 0 1-.223.405zm1.173.338c.104 0 .183-.058.238-.175s.08-.246.078-.39c-.003-.084-.022-.125-.059-.125-.027 0-.059.026-.097.078s-.074.131-.11.235a2.442 2.442 0 0 0-.091.372c.01.003.024.005.041.005zm.974-.88a.584.584 0 0 1 .212.464.768.768 0 0 1-.015.157c-.037.197-.141.338-.31.423s-.37.128-.6.128c-.116 0-.225-.009-.327-.027-.003.155.032.264.104.327s.172.094.301.094c.059 0 .116-.008.171-.025s.124-.041.208-.074a.451.451 0 0 1 .141-.045c.027 0 .041.019.041.058.002.105-.03.214-.097.329s-.166.213-.297.293a.887.887 0 0 1-.475.121c-.275 0-.5-.084-.676-.251s-.264-.411-.264-.73c0-.09.01-.194.03-.314.062-.367.197-.644.407-.831s.464-.28.763-.28c.314 0 .542.06.683.181zm2.436 1.592a.15.15 0 0 0-.007.054.08.08 0 0 0 .013.049c.008.011.02.018.034.018h.001c.03 0 .055-.016.076-.047s.035-.047.043-.047c.012 0 .022.01.03.029s.011.043.011.069c.002.087-.021.171-.071.253s-.122.149-.217.201a.708.708 0 0 1-.344.078c-.163 0-.293-.045-.39-.137s-.146-.213-.149-.365c0-.11.022-.234.067-.372l.204-.645a.336.336 0 0 0 .018-.094c0-.039-.011-.07-.032-.092s-.046-.034-.076-.034c-.054 0-.106.031-.156.092s-.085.137-.108.226l-.23.914a.309.309 0 0 0-.015.094c0 .036.006.065.019.087s.03.046.052.069c.017.018.03.034.037.049s.009.033.004.054c-.01.039-.033.067-.071.085s-.095.027-.175.027h-.847c-.064 0-.111-.013-.139-.038s-.039-.059-.032-.101a.168.168 0 0 1 .078-.094.352.352 0 0 0 .092-.084l.001-.001a.43.43 0 0 0 .063-.157l.331-1.294a.21.21 0 0 0 .007-.063c0-.033-.006-.058-.017-.076s-.029-.04-.054-.067c-.025-.024-.042-.045-.052-.063s-.011-.042-.004-.072c.015-.069.093-.129.234-.181.13-.05.281-.078.438-.078h.004c.124 0 .222.041.293.123s.104.196.097.343c.102-.176.209-.298.323-.365s.238-.101.371-.101c.151 0 .273.055.366.166s.139.254.139.43c0 .093-.012.184-.037.273l-.227.882zm2.13-1.657a.128.128 0 0 1 .039.099c0 .012-.003.033-.007.063-.032.131-.106.197-.223.197h-.215l-.279 1.106a.493.493 0 0 0-.019.137v.002c0 .054.012.091.037.112s.059.031.104.031c.04 0 .089-.006.149-.018a.28.28 0 0 1 .078-.014c.017 0 .03.007.039.02s.013.031.013.051c.002.06-.034.132-.11.217s-.178.158-.306.22a.985.985 0 0 1-.427.092c-.168 0-.303-.046-.405-.139s-.152-.219-.152-.381c0-.075.01-.146.03-.215l.238-.887a.572.572 0 0 0 .019-.121c0-.06-.012-.11-.035-.152s-.056-.085-.098-.13c-.037-.042-.063-.077-.078-.105s-.019-.062-.011-.101c.01-.039.031-.069.063-.09s.083-.031.152-.031h.208l.234-.282c.082-.099.157-.167.225-.206s.157-.058.266-.058c.156 0 .234.072.234.215a.492.492 0 0 1-.015.125l-.052.206h.197c.047 0 .084.012.11.036zm.559 2.163c-.166-.093-.298-.229-.396-.41s-.147-.399-.147-.656c0-.179.026-.373.078-.582.114-.448.286-.771.516-.97s.477-.298.739-.298a.875.875 0 0 1 .676.296l.1-.094c.067-.063.123-.106.169-.13s.097-.036.154-.036c.062 0 .111.016.149.049s.056.081.056.143a.34.34 0 0 1-.015.099l-.208.699c-.022.081-.049.137-.08.17s-.077.049-.139.049c-.064 0-.117-.028-.158-.083s-.087-.15-.139-.284c-.059-.14-.108-.233-.145-.278s-.092-.067-.163-.067c-.102 0-.199.075-.293.226s-.18.377-.256.679a2.704 2.704 0 0 0-.097.636c0 .149.024.26.071.334s.11.11.189.11c.116 0 .212-.031.288-.094s.153-.148.232-.255c.05-.066.09-.114.121-.146s.064-.047.098-.047c.045 0 .092.027.141.081s.073.108.071.161c.002.066-.041.167-.132.304s-.215.261-.375.37a.942.942 0 0 1-.544.163c-.208 0-.395-.046-.561-.139zm2.788-.804a.368.368 0 0 0-.065.208c0 .048.009.087.028.116s.045.045.08.045c.032 0 .067-.016.106-.047s.066-.078.084-.141l.078-.264a.677.677 0 0 0-.141-.013.197.197 0 0 0-.169.096zm1.06-1.263c.171.127.256.32.256.58 0 .099-.015.211-.045.336l-.152.618a.192.192 0 0 0-.004.045c0 .048.016.072.048.072.03 0 .055-.016.076-.047s.035-.047.043-.047c.012 0 .023.01.032.031s.013.045.013.072c.002.081-.023.163-.076.246s-.124.152-.214.206a.555.555 0 0 1-.293.081c-.129 0-.239-.028-.331-.085s-.155-.14-.189-.251a.81.81 0 0 1-.264.249.639.639 0 0 1-.325.087h-.003c-.131 0-.241-.031-.331-.092s-.155-.14-.199-.237a.732.732 0 0 1-.065-.304v-.003a.9.9 0 0 1 .011-.139c.04-.206.126-.361.258-.466s.29-.157.474-.157c.206 0 .407.039.605.116l.093-.296c.032-.125.048-.222.048-.291-.003-.072-.022-.125-.059-.161s-.094-.054-.171-.054a.491.491 0 0 1 .022.148c0 .11-.035.206-.104.287s-.168.121-.297.121c-.121 0-.216-.032-.284-.096s-.102-.144-.102-.24c0-.149.069-.273.208-.372s.35-.148.635-.148c.285 0 .513.064.683.19zm2.576-.038a.575.575 0 0 1 .124.376.768.768 0 0 1-.015.157c-.025.122-.072.217-.141.282s-.152.099-.249.099c-.094 0-.165-.027-.214-.081s-.091-.125-.128-.215c-.02-.051-.038-.088-.056-.112s-.037-.036-.059-.036c-.025 0-.046.012-.065.036s-.035.066-.05.125l-.286 1.12a.227.227 0 0 0-.007.067c0 .039.009.071.028.096s.044.05.076.074c.03.024.049.043.059.058s.014.034.011.058c-.005.039-.023.067-.054.085s-.084.027-.158.027h-.951c-.064 0-.111-.013-.139-.038s-.039-.059-.032-.101a.168.168 0 0 1 .078-.094.352.352 0 0 0 .092-.084l.001-.001a.43.43 0 0 0 .063-.157l.331-1.294a.21.21 0 0 0 .007-.063c0-.033-.006-.058-.017-.076s-.029-.04-.054-.067c-.025-.024-.042-.045-.052-.063s-.011-.042-.004-.072c.015-.069.093-.129.234-.181.13-.05.281-.078.438-.078h.004c.102 0 .186.028.253.083s.11.134.13.235c.119-.212.275-.318.468-.318.139 0 .249.051.332.152z"/><path fill="#0b44cd" style="fill:var(--color2, #0b44cd)" d="M24.761 14.866c.034.059.024.136-.007.197s-.083.11-.142.102l-.348-.046a1 1 0 0 1 .298-.601l.2.348zm.066.867-.144.385a.913.913 0 0 1-.384-.525l.335-.121c.057-.021.116.015.155.069s.061.127.037.193zm.66-1.244-.214.338c-.036.057-.102.065-.16.049a.16.16 0 0 1-.117-.127l-.072-.417a.684.684 0 0 1 .563.157zm.31 1.048-.333-.141c-.055-.023-.083-.093-.089-.164-.006-.069.014-.141.064-.176l.306-.211c.088.213.109.459.052.691zm-.73.684.008-.426c.001-.071.048-.126.101-.154s.116-.029.159.017l.261.286a.727.727 0 0 1-.53.277zm-1.866-1.794a2.509 2.509 0 0 1-.089.155c-.326.497-.772.793-1.324.793h-2.371l2.131-.18c.558-.046 1.082-.606 1.078-.759-.004-.123.128-.211-2.047-.322h2.476c.135 0 .22.177.147.314zm-6.68.091.2.348c.034.059.024.136-.007.197s-.083.11-.142.102l-.348-.046a.996.996 0 0 1 .299-.601zm.265 1.215-.144.385a.913.913 0 0 1-.384-.525l.335-.121c.057-.021.116.015.155.069s.061.127.037.193zm.66-1.244-.214.338c-.036.057-.102.065-.16.049a.161.161 0 0 1-.117-.127l-.072-.417a.684.684 0 0 1 .563.157zm.31 1.048-.332-.141c-.055-.023-.084-.093-.089-.164-.006-.069.014-.141.064-.176l.306-.211c.089.213.109.459.052.691zm-.729.684.008-.426a.181.181 0 0 1 .101-.154c.053-.028.116-.029.159.017l.261.286a.727.727 0 0 1-.53.277zm-1.643-1.915c-.156.208-.214.367-.247.476s-.502.109-.411-.089c.163-.358.469-.635.88-.754s-.066.159-.222.367zm11.952-.962c-.219-.228-1.472-.784-4.073-.595a1.652 1.652 0 0 0-.158.136c-.044-.213-.34-1.02-.542-1.02-.198 0-.253.406-.138 1.393-.044.009-2.124.028-2.489 0-.019.064-.128.195-.23.2-.08.004-.327.028-.389.025s-.192.015-.192.015-.007-.21.055-.207c.062.003.308-.02.389-.025.176-.009.18-.156.176-.267 0 0 .014-.183-.137-.203a2.157 2.157 0 0 0-.277-.017h-.032.002c.474-.45.982-.8.982-.8-.063-.176-.15-.286-.295-.207-.398.215-1.224.741-2.081 1.351-1.423.031-2.547.421-3.154.968-.322.29-.455.564-.475.767-.016.174.062.196.062.196.051 0 .085.063.065.12l-.024.247c-.026.073-.197.089-.168.255.029.172.04.243.366.28 0 0 .516.081 1.492.105.251.43.696.666 1.152.556.616-.148 1.015-.87.892-1.612s-.721-1.224-1.337-1.076a1.023 1.023 0 0 0-.335.15c.674-.689 1.731-.177 1.904.886.06.37.012.745-.138 1.071h5.888c.248.446.702.693 1.167.581.616-.148 1.015-.87.892-1.612s-.721-1.224-1.337-1.076a1.017 1.017 0 0 0-.227.085l.006-.003c.673-.499 1.636-.035 1.791.954.045.284.029.571-.05.836.339-.065.538-.175.801-.71.447-.909.384-1.537.197-1.746z"/><path fill="#fff" style="fill:var(--color3, #fff)" d="M2.524 29.194h1.858v-.265H2.524z"/></symbol><symbol id="carLogo2" viewBox="0 0 32 32"><path fill="#e9e9e9" style="fill:var(--color4, #e9e9e9)" d="M31.999 32H0V.001h31.999V32z"/><path fill="#231f20" style="fill:var(--color5, #231f20)" d="M7.207 18.544c0-2.072.808-4.172 2.126-5.922-1.691 1.862-2.768 4.272-2.768 6.645 0 4.242 3.439 6.759 7.68 5.622 1.489-.399 2.88-1.196 4.057-2.245-1.001.735-2.117 1.295-3.294 1.611-4.309 1.155-7.801-1.402-7.801-5.711zm16.004.353a.708.708 0 0 1-.156-.006c-.859 2.1-2.295 4.034-4.08 5.512a14.59 14.59 0 0 0 4.714-5.631.804.804 0 0 1-.432.127l-.045-.002zM15.008 6.61c-2.899.777-5.505 2.728-7.306 5.204 1.724-2.041 4.021-3.62 6.543-4.296 5.292-1.418 9.593 1.671 9.689 6.914.343.202.627.499.812.852.069-.489.105-.979.105-1.469 0-5.437-4.407-8.663-9.844-7.206z"/><path fill="#fff" style="fill:var(--color3, #fff)" d="M15.755 17.781a.42.42 0 0 0 .004.037l-.004-.037z"/><path fill="#231f20" style="fill:var(--color5, #231f20)" d="M14.217 16.002s.235-.055.607-.124l-.607.124zm11.709 2.342a.56.56 0 0 1-.242-.242c.092-.043.138-.131.262-.141-.006.128.017.286-.02.383zm-.04.465c-.096-.146-.136-.348-.222-.505.116.032.139.157.242.202-.033.075-.017.198-.02.303zm-.182.323c-.068-.134-.031-.373-.04-.565.089.098.256.477.04.565zm-.081-1.151c-.037-.226.149-.228.182-.384h.061v.222c-.076.059-.138.131-.242.162zm0-1.111c.092.109-.004.352-.02.484-.063-.089-.074-.424.02-.484zm-.087 1.356c-.033 0-.059-.062-.059-.139s.027-.139.059-.139.059.062.059.139c0 .077-.027.139-.059.139zm.027.36c.051.14-.024.289.02.444-.232-.038-.044-.308-.02-.444zm-.182-.423c.144.067.128.369.061.484-.08-.095-.135-.361-.061-.484zm-.04-.525c.147.033.105.291 0 .343-.052-.095 0-.236 0-.343zm.101-.485c.095.106-.01.29.04.444-.069-.065-.11-.159-.162-.242.072-.036.061-.155.121-.202zm.222.464c-.015-.237.051-.393.081-.585.232.146.094.473-.081.585zm-2.976-1.938-.197.017 1.908-.276c-.202-.352-.821-1.274-1.884-1.517 0 0 1.161-.02 2.317 1.625zm-1.88 3.604c-.071-2.16-1.302-2.019-1.302-2.019 1.264-.192 1.437 1.551 1.451 1.723l2.913-.37zm-.353.414c-.179-.137-.402-.23-.464-.485.154-.037.275-.238.505-.262.001.232.106.614-.04.747zm-.101.747c-.085-.393-.392-.563-.444-.989.217.133.395.304.565.484a1.075 1.075 0 0 1-.121.505zm-.485.343c-.066-.363-.021-.614-.04-1.03.231.193.368.48.384.888-.098.063-.173.15-.343.141zm-.141 0c-.113.052-.282-.171-.363-.283.184-.247.24-.621.262-1.03.17.318.087 1.006.101 1.312zm-.404-.464c-.208-.142-.253-.447-.242-.808a.548.548 0 0 1 .404-.06c.022.288-.01.687-.162.868zm-.262-1.777c.171.078.28.218.404.343-.016.106-.033.209-.04.323-.142.012-.27.039-.384.081.022-.277-.049-.539.02-.747zm.444.182c-.123-.111-.347-.209-.384-.384-.049-.233.166-.434.242-.626.267.143.205.695.141 1.009zm.182.101c-.089-.375.011-.94-.162-1.232.05-.103.235-.162.323-.06.004.409-.108.874-.162 1.292zm.207.323c0 .117-.074.212-.165.212s-.165-.095-.165-.212c0-.117.074-.212.165-.212s.165.095.165.212zm.439-.868c.124.065.117.26.121.444-.12.143-.262.262-.444.343-.03-.078-.034-.182-.081-.242.094-.222.336-.297.404-.545zm-.485.363c.016-.368.122-.646.121-1.03.156.1.236.276.343.424-.105.251-.248.466-.464.606zm-3.573-1.787s.572-.61 1.742-1.062c-1.495-.214-3.802.204-3.802.204.616-.417 1.516-.55 2.472-.627-.537-.06-1.22-.039-1.22-.039.24-.345.523-.648.808-.949 0 0 .238-.037.55-.039l4.333-.307-.219 1.304-2.226.041c.688.051 1.515.278 1.659.318l.043.003-.029.001.008.002-.089.001-.191.009a9.868 9.868 0 0 0-3.838 1.14zm-.04 1.343c-.046.106-.195.186-.303.262-.785.2-.886-1-.525-1.292.596-.483 1.081.439.828 1.03zm-.606 1.877c-.484.083-.657-.757-.222-.848.51-.106.695.767.222.848zm-1.393-.868h.519c.038.106.081.206.087.343-.369.132-.528-.117-.606-.343zm-.661.522a.267.267 0 0 1-.026.084c-.988.108-2.206.007-3.23-.04l-.493-.731.234.213.004.005.245.224-.001.001a.088.088 0 0 1 .01.006l3.146.03.171-.415c.027.277-.028.514-.061.625zm-4.427-1.269c-.201-.159-.082-.935-.081-1.191.535-.121 1.154-.073 1.756-.101a42.095 42.095 0 0 1 3.715.02c.208.216.116.817.061 1.131-.273.228-.779.184-1.252.202a58.447 58.447 0 0 1-3.553 0c-.189-.005-.536.027-.646-.061zm.28.931-.198.007-.202-.319h.008c.043 0 .259.009.32.129.027.059.05.124.075.182l-.003.002zm-.582.361c-.224-.05-.363-.725-.02-.707.231.012.576.735.02.707zm.08-2.483c-.047.36.003.806.02 1.09-.697.185-.821-1.312-.02-1.09zm6.925 1.392-.081.103c-.326.081-.872.039-1.232.02l.343-.123zm-1.208-2.055s.86-.198 1.548-.592c0 0-.579.646-1.104.835l-5.787.067zm11.767-.589c-.239-.397-.799-.517-1.365-.521a7.877 7.877 0 0 0-1.498-1.496.765.765 0 0 0-.115-.075l-.012-.006c-.282-.161-.634-.251-1.023-.314-.745-.154-1.695-.157-2.517-.113l-.052.001c-.564.023-1.008.074-1.499.14l-.279.038-.463.064c-.52.07-1.314.146-1.575.364-.434.362-.728.841-1.099 1.206l-1.666.308c-2.594.111-4.822 1.06-4.822 1.06l-.001.001c-.337.11-.62.251-.73.514-.135.324-.037.886.141 1.171-.014.06-.143.005-.141.081.072.399.436.605.868.525a.897.897 0 0 0 0 .485c.11.353.464.439.868.444-.106.155-.022.423-.02.646 0 0 4.402.349 6.426.353a1.32 1.32 0 0 0 .236-.05c.131-.044.219-.157.343-.182.116-.023.28.02.384-.02.174-.067.233-.39.444-.404.149.42.344.987.908 1.07.177.026.486.013.646.02.594.026 1.247.056 1.514-.202.415-.401.324-.99.545-1.555l2.812-.679.196-.047c.054.296.179.52.404.646 0 0 .945.082 1.243.029a.7.7 0 0 0 .13-.029c.594-.194.355-1.507.429-2.243l.051.562h.165l.325-.823c.069-.301-.051-.718-.202-.969z"/><path fill="#231f20" style="fill:var(--color5, #231f20)" d="M8.988 17.365h2.574l-2.564.111z"/><path fill="#231f20" style="fill:var(--color5, #231f20)" d="M8.988 17.455h2.574l-2.564.111z"/><path fill="#231f20" style="fill:var(--color5, #231f20)" d="M8.988 17.544h2.574l-2.564.111z"/><path fill="#231f20" style="fill:var(--color5, #231f20)" d="M8.988 17.634h2.574l-2.564.111z"/><path fill="#231f20" style="fill:var(--color5, #231f20)" d="M8.988 17.723h2.574l-2.564.111z"/><path fill="#231f20" style="fill:var(--color5, #231f20)" d="M8.988 17.813h2.574l-2.564.111z"/><path fill="#231f20" style="fill:var(--color5, #231f20)" d="M8.988 17.903h2.574l-2.564.111z"/><path fill="#231f20" style="fill:var(--color5, #231f20)" d="M8.988 17.992h2.574l-2.564.111z"/><path fill="#231f20" style="fill:var(--color5, #231f20)" d="M8.988 18.082h2.574l-2.564.111z"/><path fill="#231f20" style="fill:var(--color5, #231f20)" d="M8.988 18.171h2.574l-2.564.111z"/><path fill="#231f20" style="fill:var(--color5, #231f20)" d="M8.988 18.261h2.574l-2.564.111z"/><path fill="#231f20" style="fill:var(--color5, #231f20)" d="M8.988 18.351h2.574l-2.564.111zm5.663-1.006h-2.463l2.524.094z"/><path fill="#231f20" style="fill:var(--color5, #231f20)" d="M14.651 17.415h-2.463l2.524.094z"/><path fill="#231f20" style="fill:var(--color5, #231f20)" d="M14.651 17.486h-2.463l2.524.094z"/><path fill="#231f20" style="fill:var(--color5, #231f20)" d="M14.651 17.557h-2.463l2.524.094z"/><path fill="#231f20" style="fill:var(--color5, #231f20)" d="M14.651 17.627h-2.463l2.524.094z"/><path fill="#231f20" style="fill:var(--color5, #231f20)" d="M14.651 17.698h-2.463l2.524.094z"/><path fill="#231f20" style="fill:var(--color5, #231f20)" d="M14.651 17.769h-2.463l2.524.094z"/><path fill="#231f20" style="fill:var(--color5, #231f20)" d="M14.651 17.839h-2.463l2.524.094z"/><path fill="#231f20" style="fill:var(--color5, #231f20)" d="M14.651 17.91h-2.463l2.524.094z"/><path fill="#231f20" style="fill:var(--color5, #231f20)" d="M14.651 17.981h-2.463l2.524.094z"/><path fill="#231f20" style="fill:var(--color5, #231f20)" d="M14.651 18.051h-2.463l2.524.094z"/><path fill="#231f20" style="fill:var(--color5, #231f20)" d="M14.651 18.122h-2.463l2.524.094z"/><path fill="#231f20" style="fill:var(--color5, #231f20)" d="M14.651 18.193h-2.463l2.524.094z"/><path fill="#231f20" style="fill:var(--color5, #231f20)" d="M14.651 18.263h-2.463l2.524.094z"/><path fill="#231f20" style="fill:var(--color5, #231f20)" d="M14.651 18.334h-2.463l2.524.094zm5.477 2.943 2.434-.97-2.434.622zm5.631-1.841 1.087-.741-1.409.696z"/></symbol><symbol id="heart" viewBox="0 0 32 32"><path d="M27.787 6.148C26.46 4.82 24.626 3.999 22.6 3.999s-3.859.821-5.187 2.149L16 7.561l-1.413-1.413A7.335 7.335 0 0 0 4.214 16.522L16 28.306l11.787-11.787c1.328-1.327 2.149-3.161 2.149-5.187s-.821-3.859-2.149-5.187z"/></symbol><symbol id="cross" viewBox="0 0 32 32"><path d="M24 8 8 24M8 8l16 16"/></symbol></defs></svg>